<?xml version="1.0" encoding="utf-8"?>
<!-- Generator: Adobe Illustrator 15.1.0, SVG Export Plug-In . SVG Version: 6.00 Build 0)  -->
<!DOCTYPE svg PUBLIC "-//W3C//DTD SVG 1.1//EN" "http://www.w3.org/Graphics/SVG/1.1/DTD/svg11.dtd">
<svg version="1.1" id="Layer_2" xmlns="http://www.w3.org/2000/svg" xmlns:xlink="http://www.w3.org/1999/xlink" x="0px" y="0px"
	 width="449.334px" height="416.119px" viewBox="0 0 449.334 416.119" enable-background="new 0 0 449.334 416.119"
	 xml:space="preserve">
<path fill="#FFFFFF" d="M266.208,183.063c0,27.891-22.609,50.5-50.5,50.5s-50.5-22.609-50.5-50.5s22.609-50.5,50.5-50.5
	S266.208,155.172,266.208,183.063z M215.708,162.813c-11.184,0-20.25,9.066-20.25,20.25s9.066,20.25,20.25,20.25
	s20.25-9.066,20.25-20.25S226.892,162.813,215.708,162.813z"/>
<path fill="#FFFFFF" d="M0,132.563C0,35.452,78,0.786,150.667,0.786c94.667,0,221.887,59.333,221.887,180.417
	c0,87.399-70.85,158.25-158.25,158.25C118.667,339.452,0,246.119,0,132.563z M214.304,283.666
	c57.143,0,103.465-45.321,103.465-102.464c0-68.417-72.769-124.75-174.102-124.75c-38.667,0-88,21.667-88,76.11
	C55.667,208.786,147.333,283.666,214.304,283.666z"/>
<path fill="#FFFFFF" d="M400.173,33.076c2.164,2.264,2.082,5.852-0.181,8.016l-49.88,47.669c-2.264,2.163-5.852,2.082-8.016-0.182
	l-29.935-31.324c-2.164-2.264-2.082-5.852,0.181-8.016l49.88-47.669c2.264-2.163,5.852-2.082,8.015,0.182L400.173,33.076z"/>
<path fill="#FFFFFF" d="M449.152,141.509c0.786,3.031-1.033,6.125-4.064,6.912l-66.786,17.316c-3.031,0.786-6.124-1.034-6.91-4.065
	l-10.875-41.94c-0.786-3.031,1.034-6.125,4.064-6.912l66.786-17.316c3.031-0.786,6.124,1.034,6.911,4.064L449.152,141.509z"/>
<path fill="#FFFFFF" d="M434.652,271.868c-0.877,3.006-4.024,4.73-7.031,3.852l-66.229-19.338c-3.006-0.879-4.729-4.025-3.853-7.031
	l12.145-41.59c0.877-3.006,4.025-4.731,7.031-3.854l66.229,19.338c3.006,0.879,4.729,4.025,3.854,7.032L434.652,271.868z"/>
<path fill="#FFFFFF" d="M363.883,366.548c-2.245,2.183-5.834,2.133-8.018-0.115l-48.095-49.467c-2.183-2.246-2.13-5.834,0.114-8.017
	l31.064-30.203c2.245-2.184,5.835-2.133,8.019,0.112l48.095,49.468c2.183,2.245,2.131,5.834-0.113,8.018L363.883,366.548z"/>
<path fill="#FFFFFF" d="M253.023,415.923c-3.023,0.813-6.135-0.977-6.947-4.003l-17.937-66.621
	c-0.813-3.024,0.979-6.134,4.002-6.947l41.836-11.265c3.024-0.814,6.136,0.978,6.95,4.001l17.936,66.622
	c0.814,3.023-0.978,6.134-4.001,6.949L253.023,415.923z"/>
</svg>
