<?xml version="1.0" encoding="utf-8"?>
<!-- Generator: Adobe Illustrator 15.1.0, SVG Export Plug-In . SVG Version: 6.00 Build 0)  -->
<!DOCTYPE svg PUBLIC "-//W3C//DTD SVG 1.1//EN" "http://www.w3.org/Graphics/SVG/1.1/DTD/svg11.dtd">
<svg version="1.1" id="Layer_2" xmlns="http://www.w3.org/2000/svg" xmlns:xlink="http://www.w3.org/1999/xlink" x="0px" y="0px"
	 width="24px" height="24px" viewBox="-72.833 628.56 24 24" enable-background="new -72.833 628.56 24 24" xml:space="preserve">
<g>
	<path fill="#FFFFFF" d="M-58.631,640.09c0,1.492-1.21,2.702-2.702,2.702s-2.702-1.21-2.702-2.702s1.21-2.702,2.702-2.702
		S-58.631,638.598-58.631,640.09z M-61.333,639.006c-0.598,0-1.083,0.486-1.083,1.084c0,0.599,0.485,1.083,1.083,1.083
		c0.599,0,1.083-0.484,1.083-1.083C-60.249,639.492-60.734,639.006-61.333,639.006z"/>
	<path fill="#FFFFFF" d="M-72.874,637.388c0-5.196,4.173-7.05,8.061-7.05c5.065,0,11.872,3.173,11.872,9.652
		c0,4.677-3.791,8.467-8.467,8.467C-66.525,648.457-72.874,643.463-72.874,637.388z M-61.407,645.473
		c3.057,0,5.536-2.426,5.536-5.482c0-3.66-3.894-6.675-9.315-6.675c-2.068,0-4.708,1.158-4.708,4.072
		C-69.895,641.467-64.991,645.473-61.407,645.473z"/>
	<path fill="#FFFFFF" d="M-51.463,632.064c0.116,0.121,0.111,0.313-0.01,0.429l-2.668,2.551c-0.121,0.115-0.313,0.111-0.429-0.01
		l-1.602-1.676c-0.115-0.121-0.111-0.313,0.01-0.43l2.668-2.55c0.121-0.116,0.313-0.111,0.429,0.01L-51.463,632.064z"/>
	<path fill="#FFFFFF" d="M-48.843,637.866c0.042,0.163-0.055,0.328-0.217,0.37l-3.573,0.926c-0.162,0.042-0.328-0.055-0.37-0.217
		l-0.582-2.244c-0.042-0.162,0.055-0.328,0.217-0.369l3.573-0.927c0.162-0.043,0.328,0.056,0.371,0.218L-48.843,637.866z"/>
	<path fill="#FFFFFF" d="M-49.618,644.841c-0.047,0.161-0.215,0.254-0.376,0.206l-3.543-1.034c-0.161-0.047-0.253-0.216-0.207-0.376
		l0.65-2.226c0.047-0.16,0.215-0.253,0.376-0.206l3.543,1.035c0.161,0.046,0.253,0.215,0.207,0.376L-49.618,644.841z"/>
	<path fill="#FFFFFF" d="M-53.405,649.907c-0.12,0.116-0.312,0.113-0.429-0.006l-2.573-2.647c-0.117-0.12-0.114-0.312,0.006-0.429
		l1.662-1.616c0.12-0.117,0.312-0.114,0.429,0.006l2.573,2.647c0.117,0.12,0.114,0.313-0.006,0.429L-53.405,649.907z"/>
	<path fill="#FFFFFF" d="M-59.336,652.549c-0.162,0.043-0.328-0.052-0.371-0.214l-0.96-3.565c-0.043-0.162,0.052-0.327,0.214-0.371
		l2.238-0.604c0.162-0.043,0.329,0.054,0.372,0.214l0.959,3.565c0.043,0.162-0.052,0.328-0.214,0.372L-59.336,652.549z"/>
</g>
</svg>
