<?xml version="1.0" encoding="utf-8"?>
<!-- Generator: Adobe Illustrator 15.1.0, SVG Export Plug-In . SVG Version: 6.00 Build 0)  -->
<!DOCTYPE svg PUBLIC "-//W3C//DTD SVG 1.1//EN" "http://www.w3.org/Graphics/SVG/1.1/DTD/svg11.dtd">
<svg version="1.1" id="Layer_1" xmlns="http://www.w3.org/2000/svg" xmlns:xlink="http://www.w3.org/1999/xlink" x="0px" y="0px"
	 width="100px" height="50px" viewBox="0 0 100 50" enable-background="new 0 0 100 50" xml:space="preserve">
<g>
	<path id="path3061_18_" fill="none" stroke="#000000" stroke-width="2" d="M89.5,22.5h-15"/>
	<path id="path3061_17_" fill="none" stroke="#000000" stroke-width="2" d="M89.5,27.5h-15"/>
	<path id="path3061_16_" fill="none" stroke="#FFFFFF" stroke-width="3" d="M89.5,25h-15"/>
	<path id="path3061_15_" fill="none" stroke="#000000" stroke-width="2" d="M89.5,11.5h-15"/>
	<path id="path3061_14_" fill="none" stroke="#000000" stroke-width="2" d="M89.5,16.5h-15"/>
	<path id="path3061_13_" fill="none" stroke="#FFFFFF" stroke-width="3" d="M89.5,14h-15"/>
	<path id="path3061_12_" fill="none" stroke="#000000" stroke-width="2" d="M89.5,33.5h-15"/>
	<path id="path3061_2_" fill="none" stroke="#000000" stroke-width="2" d="M89.5,38.5h-15"/>
	<path id="path3061_1_" fill="none" stroke="#FFFFFF" stroke-width="3" d="M89.5,36h-15"/>
</g>
<rect x="29.5" y="6.5" fill="#FFFFFF" width="42" height="37"/>
<title>Layer 1</title>
<rect id="svg_1" x="28" y="5" fill="none" stroke="#000000" stroke-width="3" width="45" height="40"/>
<g>
	<g>
		<path d="M52.743,24.663c0,1.492-1.21,2.702-2.702,2.702s-2.702-1.21-2.702-2.702s1.21-2.702,2.702-2.702
			S52.743,23.171,52.743,24.663z M50.041,23.579c-0.598,0-1.083,0.486-1.083,1.084c0,0.599,0.485,1.083,1.083,1.083
			c0.6,0,1.083-0.484,1.083-1.083C51.125,24.065,50.641,23.579,50.041,23.579z"/>
		<path d="M38.5,21.961c0-5.196,4.173-7.05,8.061-7.05c5.065,0,11.873,3.173,11.873,9.651c0,4.678-3.791,8.468-8.468,8.468
			C44.849,33.03,38.5,28.036,38.5,21.961z M49.967,30.046c3.057,0,5.536-2.426,5.536-5.481c0-3.66-3.894-6.676-9.315-6.676
			c-2.068,0-4.708,1.158-4.708,4.072C41.479,26.04,46.383,30.046,49.967,30.046z"/>
		<path d="M59.911,16.637c0.116,0.121,0.11,0.313-0.011,0.43l-2.668,2.551c-0.121,0.115-0.313,0.111-0.428-0.01l-1.603-1.677
			c-0.115-0.121-0.111-0.313,0.01-0.43l2.668-2.55c0.121-0.116,0.313-0.111,0.429,0.01L59.911,16.637z"/>
		<path d="M62.531,22.439c0.042,0.162-0.055,0.327-0.217,0.369l-3.573,0.927c-0.162,0.042-0.328-0.056-0.37-0.218l-0.582-2.243
			c-0.042-0.162,0.055-0.328,0.217-0.369l3.573-0.928c0.162-0.043,0.328,0.057,0.371,0.219L62.531,22.439z"/>
		<path d="M61.756,29.414c-0.047,0.161-0.215,0.254-0.376,0.206l-3.543-1.034c-0.161-0.047-0.253-0.216-0.207-0.376l0.649-2.226
			c0.048-0.16,0.216-0.253,0.377-0.206l3.543,1.034c0.16,0.047,0.253,0.216,0.207,0.376L61.756,29.414z"/>
		<path d="M57.969,34.479c-0.119,0.116-0.312,0.113-0.429-0.006l-2.573-2.646c-0.117-0.12-0.113-0.313,0.006-0.429l1.662-1.616
			c0.12-0.117,0.313-0.114,0.43,0.006l2.572,2.646c0.117,0.12,0.114,0.313-0.006,0.43L57.969,34.479z"/>
		<path d="M52.038,37.122c-0.162,0.043-0.328-0.052-0.371-0.214l-0.96-3.565c-0.043-0.162,0.052-0.327,0.214-0.371l2.238-0.604
			c0.161-0.043,0.329,0.054,0.372,0.214l0.959,3.565c0.043,0.161-0.053,0.327-0.215,0.371L52.038,37.122z"/>
	</g>
</g>
<g>
	<path id="path3061_11_" fill="none" stroke="#000000" stroke-width="2" d="M26.5,22.163h-15"/>
	<path id="path3061_10_" fill="none" stroke="#000000" stroke-width="2" d="M26.5,27.163h-15"/>
	<path id="path3061_9_" fill="none" stroke="#FFFFFF" stroke-width="3" d="M26.5,24.663h-15"/>
	<path id="path3061_8_" fill="none" stroke="#000000" stroke-width="2" d="M26.5,11.163h-15"/>
	<path id="path3061_7_" fill="none" stroke="#000000" stroke-width="2" d="M26.5,16.163h-15"/>
	<path id="path3061_6_" fill="none" stroke="#FFFFFF" stroke-width="3" d="M26.5,13.663h-15"/>
	<path id="path3061_5_" fill="none" stroke="#000000" stroke-width="2" d="M26.5,33.163h-15"/>
	<path id="path3061_4_" fill="none" stroke="#000000" stroke-width="2" d="M26.5,38.163h-15"/>
	<path id="path3061_3_" fill="none" stroke="#FFFFFF" stroke-width="3" d="M26.5,35.663h-15"/>
</g>
</svg>
